<svg xmlns="http://www.w3.org/2000/svg" viewBox="0 0 300.29 113.98"><defs><style>.cls-1,.cls-4{fill:#fff;}.cls-1{stroke:#004876;stroke-miterlimit:10;}.cls-2{fill:#004876;}.cls-3{fill:#e53e51;}</style></defs><g id="Layer_2" data-name="Layer 2"><g id="Capa_1" data-name="Capa 1"><rect class="cls-1" x="0.5" y="0.5" width="299.29" height="112.98" rx="16.77"/><path class="cls-2" d="M48.3,16.62h7.22L43.43,49.33H36l-12-32.71h7.2l8.58,24.79Z"/><path class="cls-2" d="M60.43,49.33V16.62h6.79V49.33Z"/><path class="cls-2" d="M96.46,16.62h7.22L91.59,49.33H84.12l-12-32.71H79.3l8.58,24.79Z"/><path class="cls-2" d="M108.59,49.33V16.62h6.79V49.33Z"/><path class="cls-2" d="M142.79,22.6H130.66V30h10.75v5.91H130.66v7.4h12.13v6h-19V16.62h19Z"/><path class="cls-2" d="M172.12,16.62h6.77V49.33H171L156.55,26V49.33h-6.77V16.62h7.76l14.58,23.25Z"/><path class="cls-2" d="M187.35,49.33V16.62h11.84A18.53,18.53,0,0,1,206,17.8a12.56,12.56,0,0,1,4.89,3.34,14.52,14.52,0,0,1,2.9,5.15,21.17,21.17,0,0,1,1,6.68,21.3,21.3,0,0,1-1,6.7,14.47,14.47,0,0,1-2.9,5.14A12.46,12.46,0,0,1,206,48.15a18.33,18.33,0,0,1-6.82,1.18Zm6.79-6h4.71c3,0,5.16-.88,6.61-2.66s2.17-4.34,2.17-7.7-.72-5.94-2.17-7.71-3.65-2.66-6.61-2.66h-4.71Z"/><path class="cls-2" d="M241.4,49.33,239,42.58H225.28l-2.37,6.75H216l12-32.71h8.31l12,32.71ZM227.28,36.9H237L232.17,23Z"/><path class="cls-2" d="M264.12,49.78a15.76,15.76,0,0,1-9.07-2.5,10.06,10.06,0,0,1-4.42-7l7-1.61a6,6,0,0,0,2.16,4.13,7.17,7.17,0,0,0,4.58,1.44,5.93,5.93,0,0,0,3.58-1,3.41,3.41,0,0,0,1.36-3,3.19,3.19,0,0,0-1.16-2.42,7.53,7.53,0,0,0-2.29-1.48c-.77-.3-2-.7-3.68-1.21l-.5-.16c-.86-.27-1.55-.5-2.08-.68s-1.18-.43-2-.76a12.37,12.37,0,0,1-1.9-.95,13.8,13.8,0,0,1-1.57-1.17,6.3,6.3,0,0,1-1.32-1.51,8.18,8.18,0,0,1-.79-1.88,8.31,8.31,0,0,1-.31-2.33,8.74,8.74,0,0,1,1.52-5.15,9.38,9.38,0,0,1,4.12-3.28,15,15,0,0,1,5.9-1.1,18.42,18.42,0,0,1,4.26.48,14.59,14.59,0,0,1,3.82,1.46,9.28,9.28,0,0,1,3,2.69,10,10,0,0,1,1.73,4L269.6,26.4q-.89-4.68-5.88-4.68a6.41,6.41,0,0,0-3.65,1,3.21,3.21,0,0,0-1.42,2.87c0,1.19.79,2.16,2.37,2.9A36.29,36.29,0,0,0,265.57,30l2.17.68c.56.18,1.26.45,2.11.79a14.7,14.7,0,0,1,2.06,1,14.91,14.91,0,0,1,1.72,1.25,7.06,7.06,0,0,1,1.46,1.63,9.06,9.06,0,0,1,.89,2,8.53,8.53,0,0,1,.36,2.52,9.86,9.86,0,0,1-.65,3.69,8.19,8.19,0,0,1-1.8,2.79,10.38,10.38,0,0,1-2.71,1.91,13,13,0,0,1-3.32,1.13A19.47,19.47,0,0,1,264.12,49.78Z"/><rect class="cls-3" x="19.29" y="59.6" width="261.71" height="37.35" rx="4.77"/><path class="cls-4" d="M52.63,68.46h4.21V88.83H52l-9-14.56V88.83H38.71V68.46h4.84l9.08,14.48Z"/><path class="cls-4" d="M71.14,89.12a11.08,11.08,0,0,1-5.35-1.28,9.25,9.25,0,0,1-3.72-3.67,12,12,0,0,1,0-11.06,9.16,9.16,0,0,1,3.72-3.66,11.88,11.88,0,0,1,10.69,0,9.14,9.14,0,0,1,3.71,3.66,12,12,0,0,1,0,11.06,9.23,9.23,0,0,1-3.71,3.67A11.09,11.09,0,0,1,71.14,89.12Zm-4.46-5.66a6.47,6.47,0,0,0,8.91,0,6.58,6.58,0,0,0,1.75-4.82,6.51,6.51,0,0,0-1.75-4.79,6.47,6.47,0,0,0-8.91,0,6.54,6.54,0,0,0-1.74,4.79A6.61,6.61,0,0,0,66.68,83.46Z"/><path class="cls-4" d="M105.78,68.46H110V88.83h-4.23V80.46H97.17v8.37H92.94V68.46h4.23v8.32h8.61Z"/><path class="cls-4" d="M128.92,88.83l-1.48-4.2h-8.56l-1.48,4.2h-4.33l7.5-20.37h5.17l7.51,20.37Zm-8.8-7.74h6.08l-3-8.64Z"/><path class="cls-4" d="M147.25,78.08a4.76,4.76,0,0,1,3.83,5,5.45,5.45,0,0,1-1.62,4.18,6.7,6.7,0,0,1-4.77,1.53h-8.38V68.46h6.59a7.5,7.5,0,0,1,5,1.47A5.13,5.13,0,0,1,149.61,74a4.77,4.77,0,0,1-.59,2.42A4,4,0,0,1,147.25,78.08ZM143,72h-2.57v4.8h2.75a2.57,2.57,0,0,0,1.94-.68,2.43,2.43,0,0,0,.65-1.78,2.2,2.2,0,0,0-.7-1.7A3,3,0,0,0,143,72Zm1,13.24a3.26,3.26,0,0,0,2.34-.72,2.46,2.46,0,0,0,.74-1.83,2.56,2.56,0,0,0-.75-1.89,3.3,3.3,0,0,0-2.41-.75h-3.44v5.19Z"/><path class="cls-4" d="M154.85,88.83V68.46h4.23V88.83Z"/><path class="cls-4" d="M176.15,68.46v3.72h-4.84V88.83h-4.18V72.18h-4.87V68.46Z"/><path class="cls-4" d="M191.25,88.83l-1.48-4.2h-8.56l-1.48,4.2H175.4l7.5-20.37h5.18l7.5,20.37Zm-8.8-7.74h6.08l-3-8.64Z"/><path class="cls-4" d="M209.58,78.08a4.75,4.75,0,0,1,3.83,5,5.45,5.45,0,0,1-1.62,4.18A6.69,6.69,0,0,1,207,88.83h-8.39V68.46h6.6a7.47,7.47,0,0,1,5,1.47A5.14,5.14,0,0,1,212,74a4.77,4.77,0,0,1-.6,2.42A4,4,0,0,1,209.58,78.08ZM205.28,72h-2.57v4.8h2.75a2.6,2.6,0,0,0,1.95-.68,2.47,2.47,0,0,0,.65-1.78,2.2,2.2,0,0,0-.71-1.7A3,3,0,0,0,205.28,72Zm1,13.24a3.23,3.23,0,0,0,2.33-.72,2.46,2.46,0,0,0,.74-1.83,2.56,2.56,0,0,0-.75-1.89,3.28,3.28,0,0,0-2.41-.75h-3.44v5.19Z"/><path class="cls-4" d="M221.41,85.1h6.39v3.73H217.18V68.46h4.23Z"/><path class="cls-4" d="M242.84,72.18h-7.56v4.63H242v3.68h-6.7V85.1h7.56v3.73H231V68.46h11.82Z"/><path class="cls-4" d="M254,89.12a9.83,9.83,0,0,1-5.65-1.56,6.25,6.25,0,0,1-2.75-4.37l4.37-1a3.72,3.72,0,0,0,1.35,2.58,4.47,4.47,0,0,0,2.85.89,3.68,3.68,0,0,0,2.23-.63,2.13,2.13,0,0,0,.85-1.85,2,2,0,0,0-.72-1.51,4.72,4.72,0,0,0-1.43-.92c-.48-.18-1.24-.44-2.3-.76-.14,0-.24-.08-.31-.09l-1.29-.43c-.33-.11-.74-.27-1.22-.47a8.22,8.22,0,0,1-1.19-.59,8.69,8.69,0,0,1-1-.74,3.66,3.66,0,0,1-.81-.93,4.85,4.85,0,0,1-.5-1.17,5.26,5.26,0,0,1-.2-1.46,5.38,5.38,0,0,1,1-3.2,5.84,5.84,0,0,1,2.56-2,9.47,9.47,0,0,1,3.68-.68,11.39,11.39,0,0,1,2.65.3,9.35,9.35,0,0,1,2.38.9,5.82,5.82,0,0,1,1.89,1.68,6.12,6.12,0,0,1,1.08,2.48l-4.08,1a3.32,3.32,0,0,0-3.67-2.92,4,4,0,0,0-2.27.6,2,2,0,0,0-.89,1.79c0,.74.49,1.34,1.48,1.8a21.13,21.13,0,0,0,2.84,1l1.35.43c.35.11.78.27,1.31.49a9.56,9.56,0,0,1,1.28.63,8.63,8.63,0,0,1,1.07.78,4.08,4.08,0,0,1,.91,1,5.45,5.45,0,0,1,.79,2.83,6.28,6.28,0,0,1-.41,2.3A5.22,5.22,0,0,1,260.05,87a6.5,6.5,0,0,1-1.69,1.19,8.17,8.17,0,0,1-2.07.71A12.37,12.37,0,0,1,254,89.12Z"/></g></g></svg>