<svg xmlns="http://www.w3.org/2000/svg" viewBox="0 0 300.29 113.98"><defs><style>.cls-1,.cls-4{fill:#fff;}.cls-1{stroke:#004876;stroke-miterlimit:10;}.cls-2{fill:#e53e51;}.cls-3{fill:#004876;}</style></defs><g id="Layer_2" data-name="Layer 2"><g id="Capa_1" data-name="Capa 1"><rect class="cls-1" x="0.5" y="0.5" width="299.29" height="112.98" rx="16.77"/><rect class="cls-2" x="19.29" y="59.17" width="261.71" height="37.35" rx="4.77"/><path class="cls-3" d="M48.3,16.62h7.22L43.43,49.33H36l-12-32.71h7.2l8.58,24.79Z"/><path class="cls-3" d="M60.43,49.33V16.62h6.79V49.33Z"/><path class="cls-3" d="M96.46,16.62h7.22L91.59,49.33H84.12l-12-32.71h7.2l8.58,24.79Z"/><path class="cls-3" d="M108.59,49.33V16.62h6.79V49.33Z"/><path class="cls-3" d="M142.79,22.6H130.66V30h10.75v5.91H130.66v7.4h12.13v6h-19V16.62h19Z"/><path class="cls-3" d="M172.12,16.62h6.77V49.33H171L156.55,26V49.33h-6.77V16.62h7.76l14.58,23.25Z"/><path class="cls-3" d="M187.35,49.33V16.62h11.84A18.53,18.53,0,0,1,206,17.8a12.56,12.56,0,0,1,4.89,3.34,14.52,14.52,0,0,1,2.9,5.15,21.46,21.46,0,0,1,1,6.68,21.59,21.59,0,0,1-1,6.7,14.47,14.47,0,0,1-2.9,5.14A12.46,12.46,0,0,1,206,48.15a18.33,18.33,0,0,1-6.82,1.18Zm6.79-6h4.71c3,0,5.16-.88,6.61-2.66s2.17-4.34,2.17-7.7-.72-5.94-2.17-7.71-3.65-2.66-6.61-2.66h-4.71Z"/><path class="cls-3" d="M241.4,49.33,239,42.58H225.28l-2.37,6.75H216l12-32.71h8.31l12,32.71ZM227.28,36.9H237L232.17,23Z"/><path class="cls-3" d="M264.12,49.78a15.76,15.76,0,0,1-9.07-2.5,10.06,10.06,0,0,1-4.42-7l7-1.61a6,6,0,0,0,2.16,4.13,7.15,7.15,0,0,0,4.58,1.44,5.93,5.93,0,0,0,3.58-1,3.41,3.41,0,0,0,1.36-3,3.19,3.19,0,0,0-1.16-2.42,7.53,7.53,0,0,0-2.29-1.48c-.77-.3-2-.7-3.68-1.21l-.5-.16c-.86-.27-1.55-.5-2.08-.68s-1.18-.43-2-.76a12.37,12.37,0,0,1-1.9-.95,13.8,13.8,0,0,1-1.57-1.17,6.3,6.3,0,0,1-1.32-1.51,8.18,8.18,0,0,1-.79-1.88,8.31,8.31,0,0,1-.31-2.33,8.74,8.74,0,0,1,1.52-5.15,9.38,9.38,0,0,1,4.12-3.28,15,15,0,0,1,5.9-1.1,18.42,18.42,0,0,1,4.26.48,14.59,14.59,0,0,1,3.82,1.46,9.28,9.28,0,0,1,3,2.69,10,10,0,0,1,1.73,4L269.6,26.4q-.89-4.68-5.88-4.68a6.41,6.41,0,0,0-3.65,1,3.21,3.21,0,0,0-1.42,2.87c0,1.19.79,2.16,2.37,2.9A36.29,36.29,0,0,0,265.57,30l2.17.68c.56.18,1.26.45,2.11.79a14.7,14.7,0,0,1,2.06,1,14.91,14.91,0,0,1,1.72,1.25,7.06,7.06,0,0,1,1.46,1.63,9.06,9.06,0,0,1,.89,2,8.53,8.53,0,0,1,.36,2.52,9.86,9.86,0,0,1-.65,3.69,8.19,8.19,0,0,1-1.8,2.79,10.38,10.38,0,0,1-2.71,1.91,13,13,0,0,1-3.32,1.13A19.47,19.47,0,0,1,264.12,49.78Z"/><path class="cls-4" d="M29.12,85.17a6.64,6.64,0,0,1-2.46-.44,5.88,5.88,0,0,1-2-1.23,5.65,5.65,0,0,1-1.28-2A6.82,6.82,0,0,1,23,79a6.55,6.55,0,0,1,.8-3.27A5.47,5.47,0,0,1,26,73.53a6.6,6.6,0,0,1,3.17-.75,6.32,6.32,0,0,1,3.54,1,5.35,5.35,0,0,1,2.16,2.68l-2.34.85a3.24,3.24,0,0,0-1.29-1.62,3.72,3.72,0,0,0-2.07-.59,3.55,3.55,0,0,0-2.64,1,3.89,3.89,0,0,0-1,2.84,3.84,3.84,0,0,0,1,2.84,3.51,3.51,0,0,0,2.63,1.06,3.72,3.72,0,0,0,2.07-.59,3.28,3.28,0,0,0,1.29-1.63l2.34.85a5.37,5.37,0,0,1-2.16,2.69A6.32,6.32,0,0,1,29.12,85.17Z"/><path class="cls-4" d="M41.14,85.17A6.6,6.6,0,0,1,38,84.42a5.49,5.49,0,0,1-2.2-2.18,7.08,7.08,0,0,1,0-6.54A5.47,5.47,0,0,1,38,73.53a7.05,7.05,0,0,1,6.33,0,5.47,5.47,0,0,1,2.2,2.17,7.08,7.08,0,0,1,0,6.54,5.49,5.49,0,0,1-2.2,2.18A6.59,6.59,0,0,1,41.14,85.17ZM38.5,81.82a3.82,3.82,0,0,0,5.28,0,4.44,4.44,0,0,0,0-5.69,3.84,3.84,0,0,0-5.28,0,4.44,4.44,0,0,0,0,5.69Z"/><path class="cls-4" d="M56.76,73h2.5V85h-2.9L51,76.38V85H48.53V73h2.86l5.37,8.57Z"/><path class="cls-4" d="M69.69,73a3.6,3.6,0,0,1,2.77,1.12,3.87,3.87,0,0,1,1.06,2.77,3.8,3.8,0,0,1-1,2.76,3.68,3.68,0,0,1-2.78,1.08H67.17V85h-2.5V73Zm-.42,5.64a1.83,1.83,0,0,0,1.37-.47,2.07,2.07,0,0,0,0-2.6A1.83,1.83,0,0,0,69.27,75h-2.1v3.55Z"/><path class="cls-4" d="M80.91,85,77.77,79.7h-.72V85H74.54V73h4.38a5,5,0,0,1,1.75.28,2.9,2.9,0,0,1,1.21.77,3.17,3.17,0,0,1,.69,1.14,4.25,4.25,0,0,1,.23,1.41,2.92,2.92,0,0,1-.66,2,3.25,3.25,0,0,1-1.9,1L83.87,85ZM77.05,75V77.9h1.47c1.26,0,1.88-.47,1.88-1.43a1.29,1.29,0,0,0-.46-1.06A2.15,2.15,0,0,0,78.52,75Z"/><path class="cls-4" d="M89.67,85.17a6.6,6.6,0,0,1-3.17-.75,5.43,5.43,0,0,1-2.2-2.18,7.08,7.08,0,0,1,0-6.54,5.41,5.41,0,0,1,2.2-2.17,7.05,7.05,0,0,1,6.33,0A5.47,5.47,0,0,1,95,75.7a7.08,7.08,0,0,1,0,6.54,5.49,5.49,0,0,1-2.2,2.18A6.61,6.61,0,0,1,89.67,85.17ZM87,81.82a3.81,3.81,0,0,0,5.27,0,4.41,4.41,0,0,0,0-5.69,3.83,3.83,0,0,0-5.27,0,4.41,4.41,0,0,0,0,5.69Z"/><path class="cls-4" d="M103.53,78.64a2.82,2.82,0,0,1,2.27,3,3.23,3.23,0,0,1-1,2.47A3.94,3.94,0,0,1,102,85h-5V73H101a4.42,4.42,0,0,1,3,.87,3,3,0,0,1,1,2.43,2.78,2.78,0,0,1-.35,1.43A2.33,2.33,0,0,1,103.53,78.64ZM101,75H99.47v2.84h1.62a1.53,1.53,0,0,0,1.16-.4,1.49,1.49,0,0,0,.38-1,1.31,1.31,0,0,0-.42-1A1.75,1.75,0,0,0,101,75Zm.56,7.84a2,2,0,0,0,1.39-.42,1.47,1.47,0,0,0,.43-1.09,1.51,1.51,0,0,0-.44-1.12,2,2,0,0,0-1.43-.44h-2v3.07Z"/><path class="cls-4" d="M109.46,82.79h3.78V85H107V73h2.51Z"/><path class="cls-4" d="M121.07,75.15h-4.48v2.74h4v2.18h-4v2.72h4.48V85h-7V73h7Z"/><path class="cls-4" d="M136.39,85H133.9l-.8-9.09-3,9.09h-1.62l-3.06-9.09-.8,9.09h-2.5l1-12.06h3.57l2.57,7.57L131.83,73h3.57Z"/><path class="cls-4" d="M146,85l-.88-2.49h-5.07L139.19,85h-2.56L141.07,73h3.06L148.57,85Zm-5.21-4.59h3.6l-1.8-5.11Z"/><path class="cls-4" d="M153.31,85.17a5.81,5.81,0,0,1-3.35-.92,3.66,3.66,0,0,1-1.62-2.58l2.58-.59a2.21,2.21,0,0,0,.8,1.52,2.67,2.67,0,0,0,1.69.53,2.24,2.24,0,0,0,1.32-.37,1.25,1.25,0,0,0,.5-1.1,1.16,1.16,0,0,0-.42-.89,2.85,2.85,0,0,0-.85-.55c-.28-.11-.73-.26-1.36-.45l-.18-.06-.77-.25c-.19-.06-.44-.16-.72-.27a4.08,4.08,0,0,1-.7-.36,3.91,3.91,0,0,1-.58-.43,2.26,2.26,0,0,1-.49-.55,3.51,3.51,0,0,1-.29-.7,2.93,2.93,0,0,1-.12-.86,3.21,3.21,0,0,1,.57-1.9,3.45,3.45,0,0,1,1.52-1.21,5.49,5.49,0,0,1,2.17-.4,7.2,7.2,0,0,1,1.57.17,5.72,5.72,0,0,1,1.41.54,3.44,3.44,0,0,1,1.12,1,3.72,3.72,0,0,1,.64,1.46l-2.42.6a2,2,0,0,0-2.17-1.73,2.4,2.4,0,0,0-1.34.35,1.2,1.2,0,0,0-.53,1.06c0,.44.29.8.88,1.07a11.61,11.61,0,0,0,1.68.58l.8.25c.2.07.46.16.77.29a4.55,4.55,0,0,1,1.4.84,2.46,2.46,0,0,1,.53.6,3,3,0,0,1,.34.74,3.48,3.48,0,0,1,.13.93,3.72,3.72,0,0,1-.24,1.37,3.17,3.17,0,0,1-.67,1,3.79,3.79,0,0,1-1,.71,4.81,4.81,0,0,1-1.23.41A6.81,6.81,0,0,1,153.31,85.17Z"/><path class="cls-4" d="M166.88,85.17a6,6,0,0,1-1.85-.26,4.18,4.18,0,0,1-1.49-.79,3.49,3.49,0,0,1-1-1.38,5,5,0,0,1-.36-2V73h2.5v7.49a2.58,2.58,0,0,0,.61,1.91,2.14,2.14,0,0,0,1.6.61,2.19,2.19,0,0,0,1.62-.61,2.61,2.61,0,0,0,.61-1.91V73h2.51v7.83a5,5,0,0,1-.37,2,3.49,3.49,0,0,1-1,1.38,4.35,4.35,0,0,1-1.49.79A6.17,6.17,0,0,1,166.88,85.17Z"/><path class="cls-4" d="M179.78,85l-3.14-5.31h-.73V85h-2.5V73h4.37a5,5,0,0,1,1.76.28,3,3,0,0,1,1.21.77,3.48,3.48,0,0,1,.69,1.14,4.25,4.25,0,0,1,.23,1.41,3,3,0,0,1-.66,2,3.28,3.28,0,0,1-1.9,1L182.74,85Zm-3.87-10V77.9h1.48c1.25,0,1.88-.47,1.88-1.43a1.29,1.29,0,0,0-.46-1.06,2.17,2.17,0,0,0-1.42-.39Z"/><path class="cls-4" d="M190,78.64a2.82,2.82,0,0,1,2.27,3,3.23,3.23,0,0,1-1,2.47,3.94,3.94,0,0,1-2.82.91h-5V73h3.91a4.44,4.44,0,0,1,3,.87,3,3,0,0,1,1,2.43,2.88,2.88,0,0,1-.35,1.43A2.33,2.33,0,0,1,190,78.64ZM187.43,75h-1.52v2.84h1.63a1.5,1.5,0,0,0,1.15-.4,1.45,1.45,0,0,0,.39-1,1.31,1.31,0,0,0-.42-1A1.79,1.79,0,0,0,187.43,75Zm.57,7.84a1.93,1.93,0,0,0,1.38-.42,1.48,1.48,0,0,0,.44-1.09,1.55,1.55,0,0,0-.44-1.12,2,2,0,0,0-1.43-.44h-2v3.07Z"/><path class="cls-4" d="M201.47,85l-.87-2.49h-5.07L194.65,85h-2.56L196.53,73h3.06L204,85Zm-5.21-4.59h3.6l-1.79-5.11Z"/><path class="cls-4" d="M213,73h2.49V85h-2.89l-5.34-8.63V85h-2.5V73h2.86L213,81.52Z"/><path class="cls-4" d="M217.55,85V73h2.5V85ZM218,71.82l2.19-3.07,1.18.84-1.89,2.23Z"/><path class="cls-4" d="M226.1,85.17a5.77,5.77,0,0,1-3.35-.92,3.68,3.68,0,0,1-1.63-2.58l2.59-.59a2.17,2.17,0,0,0,.8,1.52,2.65,2.65,0,0,0,1.69.53,2.23,2.23,0,0,0,1.31-.37,1.28,1.28,0,0,0,.51-1.1,1.17,1.17,0,0,0-.43-.89,2.73,2.73,0,0,0-.85-.55q-.42-.16-1.35-.45l-.19-.06-.77-.25c-.19-.06-.43-.16-.72-.27a4.64,4.64,0,0,1-1.28-.79,2.2,2.2,0,0,1-.48-.55,3,3,0,0,1-.3-.7,3.32,3.32,0,0,1-.11-.86,3.27,3.27,0,0,1,.56-1.9,3.51,3.51,0,0,1,1.52-1.21,5.52,5.52,0,0,1,2.17-.4,7.29,7.29,0,0,1,1.58.17,5.64,5.64,0,0,1,1.4.54,3.48,3.48,0,0,1,1.13,1,3.72,3.72,0,0,1,.64,1.46l-2.43.6a2,2,0,0,0-2.17-1.73,2.4,2.4,0,0,0-1.34.35,1.2,1.2,0,0,0-.52,1.06c0,.44.29.8.87,1.07a11.61,11.61,0,0,0,1.68.58l.8.25c.21.07.46.16.78.29a6,6,0,0,1,.76.37,6.37,6.37,0,0,1,.63.47,2.31,2.31,0,0,1,.54.6,3.37,3.37,0,0,1,.33.74,3.12,3.12,0,0,1,.13.93,3.72,3.72,0,0,1-.24,1.37,3,3,0,0,1-.66,1,3.84,3.84,0,0,1-1,.71,4.57,4.57,0,0,1-1.23.41A6.71,6.71,0,0,1,226.1,85.17Z"/><path class="cls-4" d="M238.78,73v2.2h-2.86V85h-2.48V75.15h-2.88V73Z"/><path class="cls-4" d="M239.6,85V73h2.5V85Z"/><path class="cls-4" d="M249.48,85.17a6.64,6.64,0,0,1-2.46-.44,5.84,5.84,0,0,1-2-1.23,5.53,5.53,0,0,1-1.29-2,6.82,6.82,0,0,1-.47-2.56,6.45,6.45,0,0,1,.81-3.27,5.38,5.38,0,0,1,2.19-2.17,6.63,6.63,0,0,1,3.17-.75,6.32,6.32,0,0,1,3.54,1,5.35,5.35,0,0,1,2.16,2.68l-2.33.85a3.31,3.31,0,0,0-1.3-1.62,3.67,3.67,0,0,0-2.07-.59,3.51,3.51,0,0,0-2.63,1,4.4,4.4,0,0,0,0,5.68,3.51,3.51,0,0,0,2.63,1.06,3.72,3.72,0,0,0,2.07-.59,3.29,3.29,0,0,0,1.3-1.63l2.33.85A5.37,5.37,0,0,1,253,84.19,6.32,6.32,0,0,1,249.48,85.17Z"/><path class="cls-4" d="M261.5,85.17a6.63,6.63,0,0,1-3.17-.75,5.41,5.41,0,0,1-2.19-2.18,7,7,0,0,1,0-6.54,5.38,5.38,0,0,1,2.19-2.17,7.07,7.07,0,0,1,6.34,0,5.38,5.38,0,0,1,2.19,2.17,7.08,7.08,0,0,1,0,6.54,5.43,5.43,0,0,1-2.2,2.18A6.56,6.56,0,0,1,261.5,85.17Zm-2.64-3.35a3.82,3.82,0,0,0,5.28,0,4.44,4.44,0,0,0,0-5.69,3.84,3.84,0,0,0-5.28,0,4.44,4.44,0,0,0,0,5.69Z"/><path class="cls-4" d="M272.83,85.17a5.79,5.79,0,0,1-3.35-.92,3.68,3.68,0,0,1-1.63-2.58l2.59-.59a2.17,2.17,0,0,0,.8,1.52,2.67,2.67,0,0,0,1.69.53,2.24,2.24,0,0,0,1.32-.37,1.28,1.28,0,0,0,.5-1.1,1.14,1.14,0,0,0-.43-.89,2.69,2.69,0,0,0-.84-.55c-.29-.11-.74-.26-1.36-.45a.74.74,0,0,1-.18-.06l-.77-.25c-.2-.06-.44-.16-.72-.27a4.65,4.65,0,0,1-.71-.36,4.52,4.52,0,0,1-.58-.43,2.43,2.43,0,0,1-.48-.55,3,3,0,0,1-.29-.7,2.93,2.93,0,0,1-.12-.86,3.27,3.27,0,0,1,.56-1.9,3.57,3.57,0,0,1,1.52-1.21,5.57,5.57,0,0,1,2.18-.4,7.26,7.26,0,0,1,1.57.17,5.72,5.72,0,0,1,1.41.54,3.44,3.44,0,0,1,1.12,1,3.72,3.72,0,0,1,.64,1.46l-2.42.6a2,2,0,0,0-2.17-1.73,2.44,2.44,0,0,0-1.35.35,1.2,1.2,0,0,0-.52,1.06c0,.44.29.8.88,1.07a11.81,11.81,0,0,0,1.67.58l.8.25c.21.07.47.16.78.29a4.35,4.35,0,0,1,1.39.84,2.31,2.31,0,0,1,.54.6,3.37,3.37,0,0,1,.33.74,3.12,3.12,0,0,1,.14.93,3.52,3.52,0,0,1-.25,1.37,3,3,0,0,1-.66,1,3.68,3.68,0,0,1-1,.71,4.62,4.62,0,0,1-1.22.41A6.88,6.88,0,0,1,272.83,85.17Z"/></g></g></svg>