<svg version="1.2" xmlns="http://www.w3.org/2000/svg" viewBox="0 0 301 114"><style>.s0 { fill: #ffffff;stroke: #004876 } .s1 { fill: #e53e51 } .s2 { fill: #004876 } .s3 { fill: #ffffff } </style><path id="Layer" class="s0" d="m0.5 17.3c0-9.3 7.5-16.8 16.8-16.8h265.7c9.3 0 16.8 7.5 16.8 16.8v79.4c0 9.3-7.5 16.8-16.8 16.8h-265.7c-9.3 0-16.8-7.5-16.8-16.8z"/><path id="Layer" class="s1" d="m19.3 63.9c0-2.6 2.1-4.7 4.8-4.7h252.1c2.7 0 4.8 2.1 4.8 4.7v27.9c0 2.6-2.1 4.7-4.8 4.7h-252.1c-2.7 0-4.8-2.1-4.8-4.7z"/><path id="Layer" class="s2" d="m48.3 16.6h7.2l-12.1 32.7h-7.4l-12-32.7h7.2l8.6 24.8z"/><path id="Layer" class="s2" d="m60.4 49.3v-32.7h6.8v32.7z"/><path id="Layer" class="s2" d="m96.5 16.6h7.2l-12.1 32.7h-7.5l-12-32.7h7.2l8.6 24.8z"/><path id="Layer" class="s2" d="m108.6 49.3v-32.7h6.8v32.7z"/><path id="Layer" class="s2" d="m142.8 22.6h-12.1v7.4h10.7v5.9h-10.7v7.4h12.1v6h-19v-32.7h19z"/><path id="Layer" class="s2" d="m172.1 16.6h6.8v32.7h-7.9l-14.4-23.3v23.3h-6.8v-32.7h7.7l14.6 23.3z"/><path id="Layer" fill-rule="evenodd" class="s2" d="m187.3 49.3v-32.7h11.9q0.9 0 1.7 0.1 0.9 0 1.8 0.2 0.8 0.1 1.6 0.4 0.9 0.2 1.7 0.5 0.7 0.3 1.4 0.6 0.6 0.4 1.2 0.8 0.7 0.4 1.2 0.9 0.6 0.5 1.1 1 0.5 0.6 0.9 1.2 0.4 0.6 0.8 1.3 0.4 0.6 0.7 1.3 0.3 0.7 0.5 1.4 0.2 0.8 0.4 1.6 0.2 0.9 0.4 1.7 0.1 0.8 0.1 1.7 0.1 0.8 0.1 1.7 0 0.8-0.1 1.7 0 0.8-0.1 1.7-0.2 0.8-0.4 1.6-0.2 0.9-0.4 1.7-0.2 0.7-0.5 1.4-0.3 0.6-0.7 1.3-0.4 0.6-0.8 1.2-0.4 0.6-0.9 1.2-0.5 0.6-1.1 1.1-0.5 0.5-1.2 0.9-0.6 0.4-1.2 0.7-0.7 0.4-1.4 0.7-0.8 0.3-1.7 0.5-0.8 0.2-1.7 0.4-0.8 0.1-1.7 0.2-0.8 0-1.7 0zm6.8-6h4.7c3 0 5.1-0.8 6.6-2.6q2.2-2.7 2.2-7.7 0-5.1-2.2-7.7-2.2-2.7-6.6-2.7h-4.7z"/><path id="Layer" fill-rule="evenodd" class="s2" d="m241.4 49.3l-2.4-6.7h-13.7l-2.4 6.7h-6.9l12-32.7h8.3l12 32.7zm-14.1-12.4h9.7l-4.8-13.9z"/><path id="Layer" class="s2" d="m264.1 49.8q-1.2 0-2.4-0.1-1.2-0.2-2.3-0.5-1.2-0.3-2.3-0.8-1-0.5-2-1.1-0.9-0.6-1.7-1.4-0.7-0.7-1.3-1.6-0.6-0.9-1-2-0.3-1-0.5-2l7-1.6q0.1 0.6 0.2 1.1 0.2 0.6 0.5 1.2 0.3 0.5 0.6 1 0.4 0.4 0.9 0.8 0.5 0.4 1 0.7 0.6 0.2 1.2 0.4 0.5 0.2 1.1 0.3 0.7 0.1 1.3 0 0.4 0.1 0.9 0 0.5 0 0.9-0.2 0.5-0.1 0.9-0.3 0.5-0.2 0.8-0.5 0.4-0.2 0.7-0.6 0.2-0.3 0.4-0.7 0.2-0.4 0.3-0.8 0-0.4 0-0.9 0-0.3-0.1-0.6-0.1-0.4-0.2-0.7-0.2-0.3-0.4-0.6-0.2-0.3-0.4-0.5-0.3-0.2-0.6-0.4-0.2-0.2-0.5-0.4-0.3-0.2-0.6-0.4-0.3-0.1-0.6-0.3-1.2-0.4-3.7-1.2l-0.5-0.1q-1.3-0.4-2.1-0.7-0.8-0.3-2-0.8-0.2-0.1-0.5-0.2-0.2-0.1-0.5-0.2-0.2-0.1-0.4-0.3-0.3-0.1-0.5-0.2-0.2-0.2-0.4-0.3-0.2-0.1-0.4-0.3-0.2-0.1-0.4-0.3-0.2-0.1-0.4-0.3-0.2-0.2-0.3-0.3-0.2-0.2-0.4-0.4-0.2-0.2-0.3-0.4-0.2-0.2-0.3-0.4-0.1-0.2-0.2-0.5-0.1-0.2-0.2-0.4-0.1-0.3-0.2-0.5-0.1-0.2-0.2-0.5-0.1-0.3-0.1-0.6-0.1-0.2-0.1-0.5-0.1-0.3-0.1-0.6 0-0.3 0-0.6 0-0.7 0.1-1.4 0.1-0.6 0.3-1.3 0.2-0.7 0.5-1.3 0.2-0.6 0.6-1.2 0.4-0.5 0.9-1 0.4-0.5 1-0.9 0.5-0.4 1.1-0.7 0.5-0.4 1.1-0.6 0.8-0.3 1.5-0.5 0.7-0.2 1.4-0.4 0.8-0.1 1.5-0.2 0.8-0.1 1.5 0 0.6 0 1.1 0 0.6 0 1.1 0.1 0.5 0 1.1 0.1 0.5 0.1 1 0.2 0.5 0.2 1 0.3 0.5 0.2 1 0.3 0.5 0.2 0.9 0.4 0.5 0.3 0.9 0.5 0.5 0.2 0.9 0.5 0.4 0.3 0.8 0.7 0.4 0.3 0.7 0.7 0.3 0.4 0.6 0.8 0.4 0.4 0.6 0.9 0.3 0.5 0.5 1 0.2 0.5 0.4 1 0.2 0.6 0.3 1.1l-6.5 1.6q-0.9-4.7-5.9-4.7-0.5 0-0.9 0.1-0.5 0-1 0.1-0.4 0.2-0.9 0.4-0.4 0.2-0.8 0.4-0.4 0.3-0.7 0.6-0.2 0.3-0.4 0.7-0.2 0.3-0.3 0.8-0.1 0.4 0 0.8 0 1.8 2.3 2.9 0.6 0.2 1.1 0.4 0.6 0.2 1.2 0.4 0.5 0.2 1.1 0.4 0.6 0.1 1.2 0.3l2.1 0.7q0.9 0.2 2.1 0.8 0.3 0.1 0.6 0.2 0.2 0.1 0.5 0.2 0.3 0.2 0.5 0.3 0.3 0.1 0.5 0.3 0.2 0.1 0.5 0.3 0.2 0.1 0.4 0.3 0.2 0.1 0.4 0.3 0.2 0.1 0.4 0.3 0.2 0.2 0.4 0.4 0.2 0.2 0.4 0.4 0.2 0.2 0.4 0.4 0.1 0.2 0.3 0.4 0.1 0.3 0.3 0.5 0.1 0.3 0.2 0.5 0.1 0.3 0.2 0.5 0.1 0.3 0.2 0.6 0.1 0.3 0.1 0.6 0.1 0.3 0.2 0.6 0 0.3 0 0.6 0 0.4 0 0.7 0 0.4 0 0.9 0 0.5-0.1 0.9-0.1 0.5-0.2 1-0.1 0.4-0.3 0.9-0.2 0.4-0.4 0.7-0.1 0.4-0.4 0.7-0.2 0.4-0.5 0.7-0.2 0.4-0.5 0.6-0.3 0.3-0.6 0.6-0.3 0.3-0.7 0.5-0.3 0.3-0.7 0.5-0.3 0.2-0.7 0.4-0.4 0.2-0.8 0.3-0.4 0.2-0.8 0.3-0.5 0.2-0.9 0.3-0.4 0.1-0.8 0.2-0.5 0.1-1 0.2-0.4 0-0.9 0.1-0.5 0-0.9 0.1-0.5 0-1 0z"/><path id="&lt;Compound Path&gt;" fill-rule="evenodd" class="s3" d="m75.2 88.4v-20.2h7.3q2.4 0 4.2 0.7 1.8 0.8 3 2.1 1.2 1.3 1.8 3.2 0.6 1.8 0.6 4.1 0 2.3-0.6 4.1-0.6 1.9-1.8 3.2-1.2 1.3-3 2-1.8 0.8-4.2 0.8zm4.2-3.7h2.9q2.7 0 4.1-1.7 1.3-1.6 1.3-4.7 0-3.1-1.3-4.8-1.4-1.6-4.1-1.6h-2.9z"/><path id="&lt;Compound Path&gt;" class="s3" d="m96 68.2h4.2v20.2h-4.2z"/><path id="&lt;Compound Path&gt;" class="s3" d="m118.2 68.2h4.5l-7.5 20.2h-4.6l-7.4-20.2h4.5l5.2 15.3z"/><path id="&lt;Compound Path&gt;" class="s3" d="m125.7 68.2h4.2v20.2h-4.2z"/><path id="&lt;Compound Path&gt;" class="s3" d="m141.8 88.6q-3.3 0-5.6-1.5-2.3-1.5-2.7-4.3l4.3-1q0.2 1.7 1.3 2.5 1.1 0.9 2.8 0.9 1.4 0 2.2-0.6 0.9-0.6 0.9-1.8 0-0.9-0.7-1.5-0.7-0.7-1.4-0.9-0.8-0.3-2.3-0.8-0.2 0-0.3-0.1-0.8-0.2-1.3-0.4-0.5-0.2-1.2-0.5-0.7-0.3-1.2-0.5-0.4-0.3-0.9-0.8-0.6-0.4-0.9-0.9-0.3-0.5-0.4-1.2-0.2-0.6-0.2-1.4 0-1.8 0.9-3.2 0.9-1.3 2.5-2 1.6-0.7 3.7-0.7 1.4 0 2.6 0.3 1.2 0.3 2.3 0.9 1.2 0.6 1.9 1.7 0.8 1 1.1 2.4l-4.1 1q-0.5-2.8-3.6-2.8-1.3 0-2.2 0.5-0.9 0.6-0.9 1.8 0 1.1 1.5 1.8 0.6 0.3 2.8 1 0.8 0.2 1.3 0.4 0.5 0.1 1.3 0.5 0.8 0.3 1.3 0.6 0.5 0.3 1 0.8 0.6 0.4 0.9 1 0.4 0.5 0.6 1.2 0.2 0.7 0.2 1.6 0 1.2-0.4 2.2-0.4 1.1-1.1 1.8-0.7 0.6-1.7 1.1-0.9 0.5-2 0.7-1.1 0.2-2.3 0.2z"/><path id="&lt;Compound Path&gt;" class="s3" d="m153.2 68.2h4.1v20.2h-4.1z"/><path id="&lt;Compound Path&gt;" fill-rule="evenodd" class="s3" d="m173.4 77.7q3.8 1.1 3.8 5 0 2.6-1.6 4.2-1.6 1.5-4.8 1.5h-8.3v-20.2h6.6q3.2 0 4.9 1.5 1.7 1.4 1.7 4 0 1.4-0.6 2.4-0.6 1.1-1.7 1.6zm-4.3-6h-2.5v4.7h2.7q1.3 0 1.9-0.6 0.7-0.7 0.7-1.8 0-1-0.7-1.7-0.7-0.6-2.1-0.6zm1 13.1q1.5 0 2.3-0.7 0.7-0.7 0.7-1.8 0-1.2-0.7-1.9-0.8-0.8-2.4-0.8h-3.4v5.2z"/><path id="&lt;Compound Path&gt;" class="s3" d="m185.1 84.7h6.3v3.7h-10.5v-20.2h4.2z"/><path id="&lt;Compound Path&gt;" class="s3" d="m206.3 71.9h-7.5v4.6h6.6v3.6h-6.6v4.6h7.5v3.7h-11.7v-20.2h11.7z"/><path id="&lt;Compound Path&gt;" class="s3" d="m217.3 88.6q-3.4 0-5.6-1.5-2.3-1.5-2.7-4.3l4.3-1q0.2 1.7 1.3 2.5 1.1 0.9 2.8 0.9 1.4 0 2.2-0.6 0.9-0.6 0.9-1.8 0-0.9-0.7-1.5-0.7-0.7-1.5-0.9-0.7-0.3-2.2-0.8-0.2 0-0.3-0.1-0.8-0.2-1.3-0.4-0.5-0.2-1.2-0.5-0.7-0.3-1.2-0.5-0.4-0.3-1-0.8-0.5-0.4-0.8-0.9-0.3-0.5-0.5-1.2-0.1-0.6-0.1-1.4 0-1.8 0.9-3.2 0.9-1.3 2.5-2 1.6-0.7 3.7-0.7 1.3 0 2.6 0.3 1.2 0.3 2.3 0.9 1.1 0.6 1.9 1.7 0.8 1 1.1 2.4l-4.1 1q-0.5-2.8-3.6-2.8-1.4 0-2.2 0.5-0.9 0.6-0.9 1.8 0 1.1 1.5 1.8 0.6 0.3 2.8 1 0.8 0.2 1.3 0.4 0.5 0.1 1.3 0.5 0.8 0.3 1.3 0.6 0.5 0.3 1 0.8 0.6 0.4 0.9 1 0.4 0.5 0.6 1.2 0.2 0.7 0.2 1.6 0 1.2-0.4 2.2-0.4 1.1-1.1 1.8-0.7 0.6-1.7 1.1-0.9 0.5-2 0.7-1.1 0.2-2.3 0.2z"/></svg>