<svg xmlns="http://www.w3.org/2000/svg" viewBox="0 0 300.29 113.98"><defs><style>.cls-1,.cls-4{fill:#fff;}.cls-1{stroke:#004876;stroke-miterlimit:10;}.cls-2{fill:#e53e51;}.cls-3{fill:#004876;}</style></defs><g id="Layer_2" data-name="Layer 2"><g id="Capa_1" data-name="Capa 1"><rect class="cls-1" x="0.5" y="0.5" width="299.29" height="112.98" rx="16.77"/><rect class="cls-2" x="19.29" y="59.17" width="261.71" height="37.35" rx="4.77"/><path class="cls-3" d="M48.3,16.62h7.22L43.43,49.33H36l-12-32.71h7.2l8.58,24.79Z"/><path class="cls-3" d="M60.43,49.33V16.62h6.79V49.33Z"/><path class="cls-3" d="M96.46,16.62h7.22L91.59,49.33H84.12l-12-32.71h7.2l8.58,24.79Z"/><path class="cls-3" d="M108.59,49.33V16.62h6.79V49.33Z"/><path class="cls-3" d="M142.79,22.6H130.66V30h10.75v5.91H130.66v7.4h12.13v6h-19V16.62h19Z"/><path class="cls-3" d="M172.12,16.62h6.77V49.33H171L156.55,26V49.33h-6.77V16.62h7.76l14.58,23.25Z"/><path class="cls-3" d="M187.35,49.33V16.62h11.84A18.53,18.53,0,0,1,206,17.8a12.56,12.56,0,0,1,4.89,3.34,14.52,14.52,0,0,1,2.9,5.15,21.46,21.46,0,0,1,1,6.68,21.48,21.48,0,0,1-1,6.69,14.43,14.43,0,0,1-2.9,5.15A12.46,12.46,0,0,1,206,48.15a18.33,18.33,0,0,1-6.82,1.18Zm6.79-6h4.71c3,0,5.16-.88,6.61-2.66s2.17-4.34,2.17-7.7-.72-5.94-2.17-7.71-3.65-2.66-6.61-2.66h-4.71Z"/><path class="cls-3" d="M241.4,49.33,239,42.58H225.28l-2.37,6.75H216l12-32.71h8.31l12,32.71ZM227.28,36.9H237L232.17,23Z"/><path class="cls-3" d="M264.12,49.78a15.76,15.76,0,0,1-9.07-2.5,10.06,10.06,0,0,1-4.42-7l7-1.61a6,6,0,0,0,2.16,4.13,7.15,7.15,0,0,0,4.58,1.44,5.93,5.93,0,0,0,3.58-1,3.41,3.41,0,0,0,1.36-3,3.19,3.19,0,0,0-1.16-2.42,7.53,7.53,0,0,0-2.29-1.48c-.77-.3-2-.7-3.68-1.21l-.5-.16c-.86-.27-1.55-.5-2.08-.68s-1.18-.43-2-.76a12.37,12.37,0,0,1-1.9-.95,12.85,12.85,0,0,1-1.57-1.18,6.08,6.08,0,0,1-1.32-1.5,8.18,8.18,0,0,1-.79-1.88,8.31,8.31,0,0,1-.31-2.33,8.74,8.74,0,0,1,1.52-5.15,9.38,9.38,0,0,1,4.12-3.28,15,15,0,0,1,5.9-1.1,18.42,18.42,0,0,1,4.26.48,14.59,14.59,0,0,1,3.82,1.46,9.28,9.28,0,0,1,3,2.69,10,10,0,0,1,1.73,4L269.6,26.4q-.89-4.68-5.88-4.68a6.41,6.41,0,0,0-3.65,1,3.21,3.21,0,0,0-1.42,2.87c0,1.19.79,2.16,2.37,2.9A36.29,36.29,0,0,0,265.57,30l2.17.68c.56.18,1.26.44,2.11.79a14.7,14.7,0,0,1,2.06,1,14.91,14.91,0,0,1,1.72,1.25,7.06,7.06,0,0,1,1.46,1.63,9.06,9.06,0,0,1,.89,2,8.53,8.53,0,0,1,.36,2.52,9.86,9.86,0,0,1-.65,3.69,8.19,8.19,0,0,1-1.8,2.79,10.38,10.38,0,0,1-2.71,1.91,13,13,0,0,1-3.32,1.13A19.47,19.47,0,0,1,264.12,49.78Z"/><path class="cls-4" d="M92.22,85.1h6.39v3.73H88V68.46h4.23Z"/><path class="cls-4" d="M110.45,89.12a11.1,11.1,0,0,1-5.35-1.28,9.23,9.23,0,0,1-3.71-3.67,11.92,11.92,0,0,1,0-11.06,9.14,9.14,0,0,1,3.71-3.66,11.9,11.9,0,0,1,10.7,0,9.2,9.2,0,0,1,3.71,3.66,12,12,0,0,1,0,11.06,9.31,9.31,0,0,1-3.72,3.67A11,11,0,0,1,110.45,89.12ZM106,83.46a6.47,6.47,0,0,0,8.91,0,6.62,6.62,0,0,0,1.75-4.82,6.55,6.55,0,0,0-1.75-4.79,6.47,6.47,0,0,0-8.91,0,6.51,6.51,0,0,0-1.75,4.79A6.58,6.58,0,0,0,106,83.46Z"/><path class="cls-4" d="M133.77,89.12a11.37,11.37,0,0,1-4.15-.75,9.68,9.68,0,0,1-3.3-2.09A9.28,9.28,0,0,1,124.14,83a11.7,11.7,0,0,1-.79-4.33,11.06,11.06,0,0,1,1.36-5.53,9.14,9.14,0,0,1,3.71-3.66,11.1,11.1,0,0,1,5.35-1.27,10.8,10.8,0,0,1,6,1.65,9,9,0,0,1,3.65,4.54l-3.94,1.44a5.55,5.55,0,0,0-2.19-2.75,6.21,6.21,0,0,0-3.5-1,6,6,0,0,0-4.45,1.78,7.43,7.43,0,0,0,0,9.59,6,6,0,0,0,4.44,1.79,6.23,6.23,0,0,0,3.49-1,5.59,5.59,0,0,0,2.2-2.76l3.94,1.44a9,9,0,0,1-3.65,4.55A10.81,10.81,0,0,1,133.77,89.12Z"/><path class="cls-4" d="M160.51,88.83,159,84.63h-8.56L149,88.83h-4.33l7.5-20.37h5.17l7.51,20.37Zm-8.8-7.74h6.08l-3-8.64Z"/><path class="cls-4" d="M172.12,85.1h6.39v3.73H167.89V68.46h4.23Z"/><path class="cls-4" d="M193.56,72.18H186v4.63h6.69v3.68H186V85.1h7.56v3.73H181.74V68.46h11.82Z"/><path class="cls-4" d="M204.68,89.12A9.81,9.81,0,0,1,199,87.56a6.22,6.22,0,0,1-2.75-4.36l4.37-1A3.75,3.75,0,0,0,202,84.77a4.52,4.52,0,0,0,2.86.89,3.7,3.7,0,0,0,2.23-.63,2.1,2.1,0,0,0,.84-1.85,2,2,0,0,0-.72-1.51,4.61,4.61,0,0,0-1.43-.92c-.47-.18-1.24-.44-2.29-.76-.14,0-.24-.08-.31-.09-.53-.17-1-.31-1.3-.43s-.73-.27-1.22-.47a8,8,0,0,1-1.18-.59,8.82,8.82,0,0,1-1-.73,3.92,3.92,0,0,1-.82-.94,5.28,5.28,0,0,1-.69-2.62,5.46,5.46,0,0,1,1-3.21,5.87,5.87,0,0,1,2.57-2,9.42,9.42,0,0,1,3.67-.68,11.47,11.47,0,0,1,2.66.3,9.15,9.15,0,0,1,2.38.91,5.68,5.68,0,0,1,1.89,1.67,6.4,6.4,0,0,1,1.08,2.48l-4.09,1a3.31,3.31,0,0,0-3.66-2.92,4,4,0,0,0-2.27.6,2,2,0,0,0-.89,1.79c0,.74.49,1.34,1.48,1.8a20.83,20.83,0,0,0,2.83,1l1.36.43c.34.11.78.27,1.31.49a10.21,10.21,0,0,1,1.28.63,8.63,8.63,0,0,1,1.07.78,4.08,4.08,0,0,1,.91,1,5.33,5.33,0,0,1,.78,2.83,6,6,0,0,1-.41,2.3A4.93,4.93,0,0,1,210.76,87a6.28,6.28,0,0,1-1.68,1.19,8.17,8.17,0,0,1-2.07.71A12.45,12.45,0,0,1,204.68,89.12Z"/></g></g></svg>