<svg xmlns="http://www.w3.org/2000/svg" viewBox="0 0 300.29 113.98"><defs><style>.cls-1,.cls-4{fill:#fff;}.cls-1{stroke:#004876;stroke-miterlimit:10;}.cls-2{fill:#e53e51;}.cls-3{fill:#004876;}</style></defs><g id="Layer_2" data-name="Layer 2"><g id="Capa_1" data-name="Capa 1"><rect class="cls-1" x="0.5" y="0.5" width="299.29" height="112.98" rx="16.77"/><rect class="cls-2" x="19.29" y="59.17" width="261.71" height="37.35" rx="4.77"/><path class="cls-3" d="M57.17,43.33H67.42v6h-17V16.62h6.79Z"/><path class="cls-3" d="M86.43,49.78a17.74,17.74,0,0,1-8.59-2.05,14.81,14.81,0,0,1-6-5.89A17.75,17.75,0,0,1,69.71,33a17.72,17.72,0,0,1,2.17-8.89,14.76,14.76,0,0,1,6-5.87,19.08,19.08,0,0,1,17.17,0A14.8,14.8,0,0,1,101,24.08,17.72,17.72,0,0,1,103.14,33,17.75,17.75,0,0,1,101,41.84a14.81,14.81,0,0,1-6,5.89A17.68,17.68,0,0,1,86.43,49.78Zm-7.15-9.09a10.34,10.34,0,0,0,14.3,0A10.54,10.54,0,0,0,96.39,33a10.51,10.51,0,0,0-2.81-7.7,10.39,10.39,0,0,0-14.3,0A10.51,10.51,0,0,0,76.47,33,10.54,10.54,0,0,0,79.28,40.69Z"/><path class="cls-3" d="M123.87,49.78a18.25,18.25,0,0,1-6.67-1.2,15.6,15.6,0,0,1-5.31-3.35,14.91,14.91,0,0,1-3.48-5.32A18.39,18.39,0,0,1,107.14,33a17.72,17.72,0,0,1,2.17-8.89,14.79,14.79,0,0,1,6-5.87,17.82,17.82,0,0,1,8.59-2,17.29,17.29,0,0,1,9.59,2.65,14.46,14.46,0,0,1,5.86,7.29L133,28.42A9,9,0,0,0,129.48,24a10.09,10.09,0,0,0-5.61-1.58,9.64,9.64,0,0,0-7.16,2.85,10.5,10.5,0,0,0-2.8,7.7,10.5,10.5,0,0,0,2.82,7.7,9.57,9.57,0,0,0,7.14,2.87,10,10,0,0,0,5.6-1.6A9,9,0,0,0,133,37.51l6.33,2.31a14.48,14.48,0,0,1-5.86,7.3A17.21,17.21,0,0,1,123.87,49.78Z"/><path class="cls-3" d="M166.78,49.33l-2.38-6.75H150.66l-2.37,6.75h-6.95l12-32.71h8.31l12,32.71ZM152.66,36.9h9.75L157.54,23Z"/><path class="cls-3" d="M185.43,43.33h10.25v6h-17V16.62h6.79Z"/><path class="cls-3" d="M219.83,22.6H207.7V30h10.75v5.91H207.7v7.4h12.13v6h-19V16.62h19Z"/><path class="cls-3" d="M237.69,49.78a15.8,15.8,0,0,1-9.08-2.5,10,10,0,0,1-4.41-7l7-1.61a6,6,0,0,0,2.17,4.13A7.15,7.15,0,0,0,238,44.24a6,6,0,0,0,3.58-1,3.38,3.38,0,0,0,1.35-3,3.17,3.17,0,0,0-1.15-2.42,7.57,7.57,0,0,0-2.3-1.48c-.76-.3-2-.7-3.68-1.21l-.49-.16-2.09-.68c-.52-.18-1.18-.43-2-.76a12.53,12.53,0,0,1-1.91-.95,14.75,14.75,0,0,1-1.57-1.17,6.25,6.25,0,0,1-1.31-1.51,7.76,7.76,0,0,1-.79-1.88,8.3,8.3,0,0,1-.32-2.33,8.75,8.75,0,0,1,1.53-5.15A9.38,9.38,0,0,1,231,17.27a15,15,0,0,1,5.89-1.1,18.44,18.44,0,0,1,4.27.48A14.52,14.52,0,0,1,245,18.11,9.31,9.31,0,0,1,248,20.8a10.27,10.27,0,0,1,1.73,4l-6.57,1.63c-.58-3.12-2.55-4.68-5.88-4.68a6.38,6.38,0,0,0-3.64,1,3.22,3.22,0,0,0-1.43,2.87c0,1.19.79,2.16,2.38,2.9A35.69,35.69,0,0,0,239.14,30l2.17.68c.56.18,1.26.45,2.1.79a14.16,14.16,0,0,1,2.06,1,14.91,14.91,0,0,1,1.72,1.25,6.84,6.84,0,0,1,1.46,1.63,8.63,8.63,0,0,1,.9,2,8.53,8.53,0,0,1,.36,2.52,9.86,9.86,0,0,1-.66,3.69,8,8,0,0,1-1.8,2.79,10.49,10.49,0,0,1-2.7,1.91,13,13,0,0,1-3.33,1.13A19.36,19.36,0,0,1,237.69,49.78Z"/><path class="cls-4" d="M54.55,85.58l-2.11.8-1.56-1.76a6.93,6.93,0,0,1-2.93.62,6.74,6.74,0,0,1-3.24-.77,5.52,5.52,0,0,1-2.25-2.19,7,7,0,0,1,0-6.62,5.43,5.43,0,0,1,2.24-2.19A6.81,6.81,0,0,1,48,72.71a6.74,6.74,0,0,1,3.24.76,5.51,5.51,0,0,1,2.25,2.19A6.58,6.58,0,0,1,54.26,79a6.16,6.16,0,0,1-1.62,4.4ZM44.16,79a4.07,4.07,0,0,0,1.06,3,4,4,0,0,0,5.45,0,4.07,4.07,0,0,0,1.06-3,3.83,3.83,0,0,0-1.07-2.87,4,4,0,0,0-5.43,0A3.83,3.83,0,0,0,44.16,79Z"/><path class="cls-4" d="M60.14,85.24A6.23,6.23,0,0,1,58.26,85a4.31,4.31,0,0,1-1.5-.79,3.49,3.49,0,0,1-1-1.4,4.89,4.89,0,0,1-.37-2V72.88H57.9v7.57a2.66,2.66,0,0,0,.62,1.94,2.45,2.45,0,0,0,3.25,0,2.59,2.59,0,0,0,.62-1.93V72.88h2.54V80.8a5.07,5.07,0,0,1-.37,2,3.68,3.68,0,0,1-1,1.4A4.45,4.45,0,0,1,62,85,6.25,6.25,0,0,1,60.14,85.24Z"/><path class="cls-4" d="M73.81,75.1H69.29v2.77h4v2.2h-4v2.76h4.52v2.24H66.74V72.88h7.07Z"/><path class="cls-4" d="M87.06,72.88h2.53V85.07H86.66l-5.4-8.72v8.72H78.73V72.88h2.9l5.43,8.66Z"/><path class="cls-4" d="M97.06,85.24a6.62,6.62,0,0,1-3.21-.77,5.5,5.5,0,0,1-2.22-2.19,7.17,7.17,0,0,1,0-6.62,5.44,5.44,0,0,1,2.22-2.19,7.12,7.12,0,0,1,6.4,0,5.44,5.44,0,0,1,2.22,2.19,7.17,7.17,0,0,1,0,6.62,5.5,5.5,0,0,1-2.22,2.19A6.6,6.6,0,0,1,97.06,85.24Zm-2.67-3.39a3.85,3.85,0,0,0,5.33,0,4.46,4.46,0,0,0,0-5.75,3.88,3.88,0,0,0-5.33,0,4.46,4.46,0,0,0,0,5.75Z"/><path class="cls-4" d="M112,85.24a5.93,5.93,0,0,1-3.39-.93A3.79,3.79,0,0,1,107,81.69l2.61-.59a2.28,2.28,0,0,0,.81,1.54,2.7,2.7,0,0,0,1.71.53,2.2,2.2,0,0,0,1.33-.37,1.29,1.29,0,0,0,.51-1.11,1.21,1.21,0,0,0-.43-.91,2.88,2.88,0,0,0-.86-.55c-.28-.11-.74-.26-1.37-.45l-.19-.06-.77-.25-.73-.29a5.22,5.22,0,0,1-.71-.35,6,6,0,0,1-.59-.44,2.29,2.29,0,0,1-.49-.56,2.63,2.63,0,0,1-.29-.7,3,3,0,0,1-.12-.87,3.25,3.25,0,0,1,.57-1.92,3.49,3.49,0,0,1,1.53-1.22,5.5,5.5,0,0,1,2.2-.41,6.8,6.8,0,0,1,1.59.17,5.5,5.5,0,0,1,1.43.55,3.48,3.48,0,0,1,1.13,1,3.89,3.89,0,0,1,.65,1.48l-2.45.61a2,2,0,0,0-2.2-1.75,2.34,2.34,0,0,0-1.35.36,1.18,1.18,0,0,0-.54,1.07c0,.44.3.81.89,1.08a12.18,12.18,0,0,0,1.7.58l.81.26c.2.06.47.16.78.29a5.52,5.52,0,0,1,.77.38,4.49,4.49,0,0,1,.64.47,2.49,2.49,0,0,1,.54.6,3.16,3.16,0,0,1,.47,1.7,3.72,3.72,0,0,1-.24,1.37,2.92,2.92,0,0,1-.67,1,4.18,4.18,0,0,1-1,.72,5.18,5.18,0,0,1-1.24.42A6.91,6.91,0,0,1,112,85.24Z"/><path class="cls-4" d="M123.18,85.24a6.61,6.61,0,0,1-3.2-.77,5.5,5.5,0,0,1-2.22-2.19,7.17,7.17,0,0,1,0-6.62A5.44,5.44,0,0,1,120,73.47a7.12,7.12,0,0,1,6.4,0,5.44,5.44,0,0,1,2.22,2.19,7.17,7.17,0,0,1,0,6.62,5.5,5.5,0,0,1-2.22,2.19A6.61,6.61,0,0,1,123.18,85.24Zm-2.66-3.39a3.56,3.56,0,0,0,2.66,1.07,3.59,3.59,0,0,0,2.67-1.07,4.46,4.46,0,0,0,0-5.75A3.59,3.59,0,0,0,123.18,75a3.55,3.55,0,0,0-2.66,1.06,4.46,4.46,0,0,0,0,5.75Z"/><path class="cls-4" d="M139,72.88h2.53V85.07h-2.93l-5.4-8.72v8.72h-2.53V72.88h2.9L139,81.54Z"/><path class="cls-4" d="M152.38,85.24a6.8,6.8,0,0,1-2.49-.45,5.76,5.76,0,0,1-2-1.25,5.64,5.64,0,0,1-1.3-2,7,7,0,0,1-.47-2.59,6.57,6.57,0,0,1,.81-3.31,5.44,5.44,0,0,1,2.22-2.19,6.62,6.62,0,0,1,3.21-.76,6.5,6.5,0,0,1,3.57,1,5.39,5.39,0,0,1,2.19,2.72l-2.36.86a3.34,3.34,0,0,0-1.31-1.64,3.68,3.68,0,0,0-2.09-.59,3.59,3.59,0,0,0-2.67,1.06,4.45,4.45,0,0,0,0,5.74,3.59,3.59,0,0,0,2.67,1.07,3.68,3.68,0,0,0,2.08-.6,3.3,3.3,0,0,0,1.32-1.64l2.36.86A5.39,5.39,0,0,1,156,84.25,6.42,6.42,0,0,1,152.38,85.24Z"/><path class="cls-4" d="M164.53,85.24a6.61,6.61,0,0,1-3.2-.77,5.47,5.47,0,0,1-2.23-2.19,7.17,7.17,0,0,1,0-6.62,5.41,5.41,0,0,1,2.23-2.19,7.12,7.12,0,0,1,6.4,0A5.44,5.44,0,0,1,170,75.66a7.17,7.17,0,0,1,0,6.62,5.47,5.47,0,0,1-2.23,2.19A6.57,6.57,0,0,1,164.53,85.24Zm-2.67-3.39a3.87,3.87,0,0,0,5.34,0,4.49,4.49,0,0,0,0-5.75,3.89,3.89,0,0,0-5.34,0,4.49,4.49,0,0,0,0,5.75Z"/><path class="cls-4" d="M186,85.07h-2.52l-.8-9.19-3.09,9.19h-1.64l-3.09-9.19L174,85.07h-2.53l1-12.19h3.61l2.6,7.65,2.64-7.65H185Z"/><path class="cls-4" d="M194.61,75.1h-4.53v2.77h4v2.2h-4v2.76h4.53v2.24h-7.08V72.88h7.08Z"/><path class="cls-4" d="M202.57,85.07l-3.18-5.37h-.73v5.37h-2.53V72.88h4.42a5.06,5.06,0,0,1,1.77.28,3.17,3.17,0,0,1,1.23.78,3.25,3.25,0,0,1,.69,1.16,4,4,0,0,1,.23,1.42,3,3,0,0,1-.66,2,3.4,3.4,0,0,1-1.92,1l3.67,5.49ZM198.66,75v2.91h1.49c1.27,0,1.9-.49,1.9-1.45a1.33,1.33,0,0,0-.46-1.08,2.27,2.27,0,0,0-1.44-.38Z"/><path class="cls-4" d="M211.42,85.24a6.8,6.8,0,0,1-2.49-.45,6,6,0,0,1-2-1.25,5.64,5.64,0,0,1-1.3-2,7,7,0,0,1-.47-2.59,6.57,6.57,0,0,1,.81-3.31,5.41,5.41,0,0,1,2.23-2.19,7.07,7.07,0,0,1,6.78.22,5.43,5.43,0,0,1,2.18,2.72l-2.36.86a3.34,3.34,0,0,0-1.31-1.64,3.68,3.68,0,0,0-2.09-.59,3.59,3.59,0,0,0-2.67,1.06,4.46,4.46,0,0,0,0,5.74,3.57,3.57,0,0,0,2.66,1.07,3.71,3.71,0,0,0,2.09-.6,3.34,3.34,0,0,0,1.31-1.64l2.36.86A5.43,5.43,0,0,1,215,84.25,6.48,6.48,0,0,1,211.42,85.24Z"/><path class="cls-4" d="M218.17,85.07V72.88h2.53V85.07Z"/><path class="cls-4" d="M230.92,85.07,230,82.55h-5.13L224,85.07h-2.59l4.49-12.19H229l4.49,12.19Zm-5.26-4.63h3.63l-1.81-5.18Z"/><path class="cls-4" d="M236.79,82.83h3.82v2.24h-6.35V72.88h2.53Z"/><path class="cls-4" d="M248.53,75.1H244v2.77h4v2.2h-4v2.76h4.53v2.24h-7.08V72.88h7.08Z"/><path class="cls-4" d="M254.1,85.24a5.93,5.93,0,0,1-3.39-.93,3.79,3.79,0,0,1-1.64-2.62l2.61-.59a2.28,2.28,0,0,0,.81,1.54,2.7,2.7,0,0,0,1.71.53,2.2,2.2,0,0,0,1.33-.37,1.29,1.29,0,0,0,.51-1.11,1.21,1.21,0,0,0-.43-.91,2.88,2.88,0,0,0-.86-.55c-.28-.11-.74-.26-1.37-.45l-.19-.06-.77-.25-.73-.29a5.22,5.22,0,0,1-.71-.35,6,6,0,0,1-.59-.44,2.29,2.29,0,0,1-.49-.56,3,3,0,0,1-.29-.7,3,3,0,0,1-.12-.87,3.25,3.25,0,0,1,.57-1.92,3.49,3.49,0,0,1,1.53-1.22,5.5,5.5,0,0,1,2.2-.41,6.8,6.8,0,0,1,1.59.17,5.5,5.5,0,0,1,1.43.55,3.48,3.48,0,0,1,1.13,1,3.89,3.89,0,0,1,.65,1.48l-2.45.61a2,2,0,0,0-2.2-1.75,2.34,2.34,0,0,0-1.35.36,1.18,1.18,0,0,0-.54,1.07c0,.44.3.81.89,1.08a12.18,12.18,0,0,0,1.7.58l.81.26c.2.06.47.16.78.29a5.52,5.52,0,0,1,.77.38,4.49,4.49,0,0,1,.64.47,2.78,2.78,0,0,1,.55.6,3.55,3.55,0,0,1,.33.76,3.14,3.14,0,0,1,.13.94,3.72,3.72,0,0,1-.24,1.37,2.92,2.92,0,0,1-.67,1,4.18,4.18,0,0,1-1,.72,5.18,5.18,0,0,1-1.24.42A6.91,6.91,0,0,1,254.1,85.24Z"/></g></g></svg>