<svg width="61" height="46" viewBox="0 0 61 46" fill="none" xmlns="http://www.w3.org/2000/svg">
<path d="M51.0701 3.82288C47.2474 2.04085 43.1084 0.747437 38.7971 0.00013221C38.7593 -0.00107671 38.7217 0.00601717 38.6869 0.0209152C38.6521 0.0358132 38.6211 0.0581536 38.5959 0.0863602C38.0785 1.03486 37.4749 2.27079 37.0725 3.21929C32.4996 2.52947 27.8491 2.52947 23.2761 3.21929C22.8737 2.24205 22.2701 1.03486 21.724 0.0863602C21.6953 0.0288753 21.6091 0.00013221 21.5228 0.00013221C17.2115 0.747437 13.1013 2.04085 9.2498 3.82288C9.22106 3.82288 9.19232 3.85162 9.16357 3.88037C1.34562 15.5786 -0.810066 26.9606 0.253405 38.2276C0.253405 38.2851 0.282148 38.3426 0.339633 38.3713C5.51328 42.1653 10.4857 44.4647 15.4007 45.9881C15.4869 46.0168 15.5731 45.9881 15.6019 45.9306C16.7516 44.3498 17.7863 42.6827 18.6773 40.9294C18.7348 40.8144 18.6773 40.6995 18.5624 40.6707C16.924 40.0384 15.3719 39.2911 13.8486 38.4288C13.7336 38.3713 13.7336 38.1989 13.8199 38.1127C14.136 37.8827 14.4522 37.624 14.7684 37.3941C14.8258 37.3366 14.9121 37.3366 14.9696 37.3653C24.857 41.8779 35.5204 41.8779 45.2929 37.3653C45.3504 37.3366 45.4366 37.3366 45.4941 37.3941C45.8102 37.6528 46.1264 37.8827 46.4426 38.1414C46.5575 38.2276 46.5575 38.4001 46.4138 38.4576C44.9192 39.3486 43.3384 40.0671 41.7001 40.6995C41.5851 40.7282 41.5563 40.8719 41.5851 40.9582C42.5048 42.7115 43.5396 44.3785 44.6605 45.9593C44.7468 45.9881 44.833 46.0168 44.9192 45.9881C49.8629 44.4647 54.8354 42.1653 60.009 38.3713C60.0665 38.3426 60.0952 38.2851 60.0952 38.2276C61.3599 25.2073 57.997 13.9115 51.1851 3.88037C51.1563 3.85162 51.1276 3.82288 51.0701 3.82288ZM20.1719 31.3582C17.2115 31.3582 14.7396 28.6276 14.7396 25.2648C14.7396 21.9019 17.154 19.1714 20.1719 19.1714C23.2186 19.1714 25.633 21.9306 25.6043 25.2648C25.6043 28.6276 23.1899 31.3582 20.1719 31.3582ZM40.2054 31.3582C37.245 31.3582 34.7731 28.6276 34.7731 25.2648C34.7731 21.9019 37.1875 19.1714 40.2054 19.1714C43.2521 19.1714 45.6665 21.9306 45.6378 25.2648C45.6378 28.6276 43.2521 31.3582 40.2054 31.3582Z" fill="#E65558"/>
</svg>
