<svg width="56" height="56" viewBox="0 0 56 56" fill="none" xmlns="http://www.w3.org/2000/svg">
<path d="M51.2203 39.2656C50.4219 38.8281 49.4266 39.1234 48.9891 39.9109C48.5516 40.7093 48.8469 41.7046 49.6344 42.1421C51.5922 43.214 52.7078 44.4062 52.7078 45.4124C52.7078 46.6374 50.9688 48.5406 46.1016 50.1921C41.2891 51.8327 34.8578 52.7296 27.9891 52.7296C21.1203 52.7296 14.6891 51.8327 9.87656 50.1921C5.02031 48.5296 3.28125 46.6265 3.28125 45.4015C3.28125 44.3952 4.39687 43.214 6.35469 42.1312C7.15312 41.6937 7.4375 40.6984 7 39.8999C6.5625 39.1015 5.56719 38.8171 4.76875 39.2546C2.59219 40.4577 0 42.4921 0 45.4015C0 47.6327 1.53125 50.8046 8.8375 53.2874C13.9781 55.0374 20.7922 55.9999 28 55.9999C35.2078 55.9999 42.0219 55.0374 47.1625 53.2874C54.4688 50.8046 56 47.6327 56 45.4015C56 42.4921 53.4078 40.4577 51.2203 39.2656Z" fill="#E65558"/>
<path d="M15.6186 47.8078C18.9436 48.7484 23.3515 49.2625 27.9999 49.2625C32.6483 49.2625 37.0561 48.7484 40.3811 47.8078C44.4608 46.6593 46.5171 44.9859 46.5171 42.8531C46.5171 40.7203 44.4499 39.0468 40.3811 37.8984C39.4733 37.6468 38.489 37.4171 37.4499 37.2312C36.8811 38.2156 36.2905 39.2218 35.6671 40.2609C36.8265 40.4359 37.9093 40.6437 38.8936 40.8953C41.8905 41.6609 42.9843 42.514 43.214 42.8531C42.9843 43.1812 41.8905 44.0453 38.8936 44.8109C36.0608 45.5328 32.4077 45.9484 28.5577 45.9812C28.3718 45.9921 28.1858 46.0031 27.9999 46.0031C27.814 46.0031 27.628 45.9921 27.4421 45.9812C23.5921 45.9484 19.9499 45.5328 17.1061 44.8109C14.1093 44.0453 13.0155 43.1921 12.7858 42.8531C13.0155 42.525 14.1093 41.6609 17.1061 40.8953C18.0905 40.6437 19.1843 40.4359 20.3327 40.2609C19.7093 39.2218 19.1186 38.2156 18.5499 37.2312C17.4999 37.4171 16.5155 37.6468 15.6186 37.8984C11.539 39.0468 9.48271 40.7203 9.48271 42.8531C9.47177 44.9968 11.539 46.6593 15.6186 47.8078Z" fill="#E65558"/>
<path d="M28 42.7219C29.4657 42.7219 30.7891 41.9781 31.5438 40.7313C36.8813 31.9922 43.2469 20.4859 43.2469 15.2469C43.2469 6.84687 36.411 0 28 0C19.5891 0 12.7532 6.84687 12.7532 15.2469C12.7532 20.4859 19.1188 31.9922 24.4563 40.7313C25.211 41.9781 26.5344 42.7219 28 42.7219ZM21.875 14.2078C21.875 10.8281 24.6204 8.08281 28 8.08281C31.3797 8.08281 34.125 10.8281 34.125 14.2078C34.125 17.5875 31.3797 20.3328 28 20.3328C24.6204 20.3328 21.875 17.5875 21.875 14.2078Z" fill="#E65558"/>
</svg>
