<svg width="54" height="41" viewBox="0 0 54 41" fill="none" xmlns="http://www.w3.org/2000/svg">
<path fill-rule="evenodd" clip-rule="evenodd" d="M19.3644 23.8518L27.0054 29.0763L34.371 23.9949L50.8815 40.284C50.4468 40.4244 49.9824 40.5 49.4991 40.5H4.5009C3.9069 40.5 3.3399 40.3839 2.8188 40.176L19.3644 23.8518ZM54 10.4652V35.9991C54 36.666 53.8542 37.2978 53.595 37.8675L37.4112 21.8997L54 10.4652ZM2.54773e-06 10.6083L16.3134 21.7647L0.286203 37.5813C0.0963812 37.0754 -0.00057303 36.5394 2.54773e-06 35.9991V10.6083ZM49.4991 0C51.9831 0 54 2.0142 54 4.5009V6.0831L26.9946 24.6996L2.54773e-06 6.237V4.5009C2.54773e-06 2.0169 2.0142 0 4.5009 0H49.4991Z" fill="#E65558"/>
</svg>
