<svg width="54" height="54" viewBox="0 0 54 54" fill="none" xmlns="http://www.w3.org/2000/svg">
<path d="M53.9732 40.7771C53.4948 44.4287 51.7067 47.7824 48.9413 50.2145C46.1759 52.6467 42.6213 53.9919 38.9385 54C17.4683 54 0 36.5317 0 15.0615C0.00811856 11.3787 1.35331 7.82414 3.78548 5.05873C6.21765 2.29332 9.57129 0.505211 13.2229 0.0268508C14.1537 -0.0763609 15.0933 0.119624 15.9053 0.586385C16.7172 1.05315 17.3594 1.76641 17.7387 2.62275L23.1738 15.3048C23.4558 15.9631 23.5688 16.6814 23.5027 17.3944C23.4366 18.1075 23.1934 18.7927 22.7953 19.388L18.3065 26.2563C20.3391 30.3813 23.6883 33.7115 27.8248 35.7205L34.612 31.2047C35.2066 30.8039 35.8936 30.5613 36.6081 30.4998C37.3225 30.4383 38.0408 30.5599 38.6952 30.8532L51.3772 36.2613C52.2336 36.6406 52.9469 37.2828 53.4136 38.0947C53.8804 38.9067 54.0764 39.8463 53.9732 40.7771Z" fill="#E65558"/>
</svg>
