<svg width="55" height="55" viewBox="0 0 55 55" fill="none" xmlns="http://www.w3.org/2000/svg">
<path d="M39.49 33C39.71 31.185 39.875 29.37 39.875 27.5C39.875 25.63 39.71 23.815 39.49 22H48.785C49.225 23.76 49.5 25.6025 49.5 27.5C49.5 29.3975 49.225 31.24 48.785 33M34.6225 48.29C36.2725 45.2375 37.5375 41.9375 38.4175 38.5H46.53C43.8657 43.0878 39.6388 46.563 34.6225 48.29ZM33.935 33H21.065C20.79 31.185 20.625 29.37 20.625 27.5C20.625 25.63 20.79 23.7875 21.065 22H33.935C34.1825 23.7875 34.375 25.63 34.375 27.5C34.375 29.37 34.1825 31.185 33.935 33ZM27.5 49.39C25.2175 46.09 23.375 42.4325 22.2475 38.5H32.7525C31.625 42.4325 29.7825 46.09 27.5 49.39ZM16.5 16.5H8.47C11.1069 11.8998 15.3307 8.41909 20.35 6.71C18.7 9.7625 17.4625 13.0625 16.5 16.5ZM8.47 38.5H16.5C17.4625 41.9375 18.7 45.2375 20.35 48.29C15.3412 46.5621 11.1233 43.0862 8.47 38.5ZM6.215 33C5.775 31.24 5.5 29.3975 5.5 27.5C5.5 25.6025 5.775 23.76 6.215 22H15.51C15.29 23.815 15.125 25.63 15.125 27.5C15.125 29.37 15.29 31.185 15.51 33M27.5 5.5825C29.7825 8.8825 31.625 12.5675 32.7525 16.5H22.2475C23.375 12.5675 25.2175 8.8825 27.5 5.5825ZM46.53 16.5H38.4175C37.5568 13.094 36.2823 9.80621 34.6225 6.71C39.6825 8.4425 43.89 11.935 46.53 16.5ZM27.5 0C12.2925 0 0 12.375 0 27.5C0 34.7935 2.89731 41.7882 8.05456 46.9454C10.6082 49.499 13.6398 51.5247 16.9762 52.9067C20.3127 54.2887 23.8886 55 27.5 55C34.7935 55 41.7882 52.1027 46.9454 46.9454C52.1027 41.7882 55 34.7935 55 27.5C55 23.8886 54.2887 20.3127 52.9067 16.9762C51.5247 13.6398 49.499 10.6082 46.9454 8.05456C44.3918 5.50095 41.3602 3.47532 38.0238 2.09331C34.6873 0.711309 31.1114 0 27.5 0Z" fill="#E65558"/>
</svg>
